<mxfile host="app.diagrams.net" agent="Mozilla/5.0 (Windows NT 10.0; Win64; x64) AppleWebKit/537.36 (KHTML, like Gecko) Chrome/134.0.0.0 Safari/537.36 Edg/134.0.0.0" version="26.1.3">
  <diagram id="C5RBs43oDa-KdzZeNtuy" name="Page-1">
    <mxGraphModel dx="872" dy="469" grid="1" gridSize="10" guides="1" tooltips="1" connect="1" arrows="1" fold="1" page="1" pageScale="1" pageWidth="827" pageHeight="1169" math="0" shadow="0">
      <root>
        <mxCell id="WIyWlLk6GJQsqaUBKTNV-0" />
        <mxCell id="WIyWlLk6GJQsqaUBKTNV-1" parent="WIyWlLk6GJQsqaUBKTNV-0" />
        <mxCell id="7ftxl7zBLwke0Bp_aZko-4" value="" style="edgeStyle=orthogonalEdgeStyle;rounded=0;orthogonalLoop=1;jettySize=auto;html=1;" edge="1" parent="WIyWlLk6GJQsqaUBKTNV-1" source="7ftxl7zBLwke0Bp_aZko-1" target="7ftxl7zBLwke0Bp_aZko-3">
          <mxGeometry relative="1" as="geometry" />
        </mxCell>
        <mxCell id="7ftxl7zBLwke0Bp_aZko-1" value="start" style="rounded=1;whiteSpace=wrap;html=1;absoluteArcSize=1;arcSize=14;strokeWidth=2;" vertex="1" parent="WIyWlLk6GJQsqaUBKTNV-1">
          <mxGeometry x="310" y="60" width="140" height="70" as="geometry" />
        </mxCell>
        <mxCell id="7ftxl7zBLwke0Bp_aZko-6" value="" style="edgeStyle=orthogonalEdgeStyle;rounded=0;orthogonalLoop=1;jettySize=auto;html=1;" edge="1" parent="WIyWlLk6GJQsqaUBKTNV-1" source="7ftxl7zBLwke0Bp_aZko-3" target="7ftxl7zBLwke0Bp_aZko-5">
          <mxGeometry relative="1" as="geometry" />
        </mxCell>
        <mxCell id="7ftxl7zBLwke0Bp_aZko-3" value="user attempts to sign in" style="whiteSpace=wrap;html=1;rounded=1;arcSize=14;strokeWidth=2;" vertex="1" parent="WIyWlLk6GJQsqaUBKTNV-1">
          <mxGeometry x="320" y="215" width="120" height="60" as="geometry" />
        </mxCell>
        <mxCell id="7ftxl7zBLwke0Bp_aZko-8" value="" style="edgeStyle=orthogonalEdgeStyle;rounded=0;orthogonalLoop=1;jettySize=auto;html=1;" edge="1" parent="WIyWlLk6GJQsqaUBKTNV-1" source="7ftxl7zBLwke0Bp_aZko-5" target="7ftxl7zBLwke0Bp_aZko-7">
          <mxGeometry relative="1" as="geometry" />
        </mxCell>
        <mxCell id="7ftxl7zBLwke0Bp_aZko-5" value="get authentication triggered in app.jsx&amp;nbsp; through use effect hook" style="whiteSpace=wrap;html=1;rounded=1;arcSize=14;strokeWidth=2;" vertex="1" parent="WIyWlLk6GJQsqaUBKTNV-1">
          <mxGeometry x="320" y="355" width="150" height="60" as="geometry" />
        </mxCell>
        <mxCell id="7ftxl7zBLwke0Bp_aZko-11" value="" style="edgeStyle=orthogonalEdgeStyle;rounded=0;orthogonalLoop=1;jettySize=auto;html=1;" edge="1" parent="WIyWlLk6GJQsqaUBKTNV-1" source="7ftxl7zBLwke0Bp_aZko-7" target="7ftxl7zBLwke0Bp_aZko-10">
          <mxGeometry relative="1" as="geometry" />
        </mxCell>
        <mxCell id="7ftxl7zBLwke0Bp_aZko-15" value="" style="edgeStyle=orthogonalEdgeStyle;rounded=0;orthogonalLoop=1;jettySize=auto;html=1;" edge="1" parent="WIyWlLk6GJQsqaUBKTNV-1" source="7ftxl7zBLwke0Bp_aZko-7" target="7ftxl7zBLwke0Bp_aZko-14">
          <mxGeometry relative="1" as="geometry" />
        </mxCell>
        <mxCell id="7ftxl7zBLwke0Bp_aZko-7" value="is user authentic?" style="rhombus;whiteSpace=wrap;html=1;rounded=1;arcSize=14;strokeWidth=2;" vertex="1" parent="WIyWlLk6GJQsqaUBKTNV-1">
          <mxGeometry x="355" y="485" width="125" height="125" as="geometry" />
        </mxCell>
        <mxCell id="7ftxl7zBLwke0Bp_aZko-9" value="No" style="text;html=1;align=center;verticalAlign=middle;resizable=0;points=[];autosize=1;strokeColor=none;fillColor=none;" vertex="1" parent="WIyWlLk6GJQsqaUBKTNV-1">
          <mxGeometry x="470" y="508" width="40" height="30" as="geometry" />
        </mxCell>
        <mxCell id="7ftxl7zBLwke0Bp_aZko-10" value="error" style="whiteSpace=wrap;html=1;rounded=1;arcSize=14;strokeWidth=2;" vertex="1" parent="WIyWlLk6GJQsqaUBKTNV-1">
          <mxGeometry x="562.5" y="517.5" width="120" height="60" as="geometry" />
        </mxCell>
        <mxCell id="7ftxl7zBLwke0Bp_aZko-12" value="" style="endArrow=classic;html=1;rounded=0;exitX=0.5;exitY=0;exitDx=0;exitDy=0;entryX=1.014;entryY=0.4;entryDx=0;entryDy=0;entryPerimeter=0;" edge="1" parent="WIyWlLk6GJQsqaUBKTNV-1" source="7ftxl7zBLwke0Bp_aZko-10" target="7ftxl7zBLwke0Bp_aZko-1">
          <mxGeometry width="50" height="50" relative="1" as="geometry">
            <mxPoint x="632.5" y="480" as="sourcePoint" />
            <mxPoint x="623" y="250" as="targetPoint" />
            <Array as="points">
              <mxPoint x="623" y="90" />
            </Array>
          </mxGeometry>
        </mxCell>
        <mxCell id="7ftxl7zBLwke0Bp_aZko-13" value="Yes" style="text;html=1;align=center;verticalAlign=middle;resizable=0;points=[];autosize=1;strokeColor=none;fillColor=none;" vertex="1" parent="WIyWlLk6GJQsqaUBKTNV-1">
          <mxGeometry x="440" y="588" width="40" height="30" as="geometry" />
        </mxCell>
        <mxCell id="7ftxl7zBLwke0Bp_aZko-14" value="token given" style="whiteSpace=wrap;html=1;rounded=1;arcSize=14;strokeWidth=2;" vertex="1" parent="WIyWlLk6GJQsqaUBKTNV-1">
          <mxGeometry x="357.5" y="722.5" width="120" height="60" as="geometry" />
        </mxCell>
      </root>
    </mxGraphModel>
  </diagram>
</mxfile>
